<svg width="90" height="20" viewBox="0 0 90 20" fill="none" xmlns="http://www.w3.org/2000/svg">
<path d="M8.342 2.364V4.83H3.194V7.494H7.046V9.888H3.194V15H0.116V2.364H8.342ZM14.5318 15.144C13.5478 15.144 12.6598 14.934 11.8678 14.514C11.0878 14.094 10.4698 13.494 10.0138 12.714C9.56975 11.934 9.34775 11.022 9.34775 9.978C9.34775 8.946 9.57575 8.04 10.0317 7.26C10.4878 6.468 11.1118 5.862 11.9038 5.442C12.6958 5.022 13.5838 4.812 14.5678 4.812C15.5518 4.812 16.4398 5.022 17.2318 5.442C18.0238 5.862 18.6478 6.468 19.1038 7.26C19.5598 8.04 19.7878 8.946 19.7878 9.978C19.7878 11.01 19.5538 11.922 19.0858 12.714C18.6298 13.494 17.9998 14.094 17.1958 14.514C16.4038 14.934 15.5158 15.144 14.5318 15.144ZM14.5318 12.48C15.1198 12.48 15.6178 12.264 16.0258 11.832C16.4458 11.4 16.6558 10.782 16.6558 9.978C16.6558 9.174 16.4518 8.556 16.0438 8.124C15.6478 7.692 15.1558 7.476 14.5678 7.476C13.9678 7.476 13.4698 7.692 13.0738 8.124C12.6778 8.544 12.4798 9.162 12.4798 9.978C12.4798 10.782 12.6718 11.4 13.0558 11.832C13.4518 12.264 13.9438 12.48 14.5318 12.48ZM25.9927 15.144C25.0087 15.144 24.1207 14.934 23.3287 14.514C22.5487 14.094 21.9307 13.494 21.4747 12.714C21.0307 11.934 20.8087 11.022 20.8087 9.978C20.8087 8.946 21.0367 8.04 21.4927 7.26C21.9487 6.468 22.5727 5.862 23.3647 5.442C24.1567 5.022 25.0447 4.812 26.0287 4.812C27.0127 4.812 27.9007 5.022 28.6927 5.442C29.4847 5.862 30.1087 6.468 30.5647 7.26C31.0207 8.04 31.2487 8.946 31.2487 9.978C31.2487 11.01 31.0147 11.922 30.5467 12.714C30.0907 13.494 29.4607 14.094 28.6567 14.514C27.8647 14.934 26.9767 15.144 25.9927 15.144ZM25.9927 12.48C26.5807 12.48 27.0787 12.264 27.4867 11.832C27.9067 11.4 28.1167 10.782 28.1167 9.978C28.1167 9.174 27.9127 8.556 27.5047 8.124C27.1087 7.692 26.6167 7.476 26.0287 7.476C25.4287 7.476 24.9307 7.692 24.5347 8.124C24.1387 8.544 23.9407 9.162 23.9407 9.978C23.9407 10.782 24.1327 11.4 24.5167 11.832C24.9127 12.264 25.4047 12.48 25.9927 12.48ZM32.2696 9.96C32.2696 8.928 32.4616 8.022 32.8456 7.242C33.2416 6.462 33.7756 5.862 34.4476 5.442C35.1196 5.022 35.8696 4.812 36.6976 4.812C37.3576 4.812 37.9576 4.95 38.4976 5.226C39.0496 5.502 39.4816 5.874 39.7936 6.342V1.68H42.8716V15H39.7936V13.56C39.5056 14.04 39.0916 14.424 38.5516 14.712C38.0236 15 37.4056 15.144 36.6976 15.144C35.8696 15.144 35.1196 14.934 34.4476 14.514C33.7756 14.082 33.2416 13.476 32.8456 12.696C32.4616 11.904 32.2696 10.992 32.2696 9.96ZM39.7936 9.978C39.7936 9.21 39.5776 8.604 39.1456 8.16C38.7256 7.716 38.2096 7.494 37.5976 7.494C36.9856 7.494 36.4636 7.716 36.0316 8.16C35.6116 8.592 35.4016 9.192 35.4016 9.96C35.4016 10.728 35.6116 11.34 36.0316 11.796C36.4636 12.24 36.9856 12.462 37.5976 12.462C38.2096 12.462 38.7256 12.24 39.1456 11.796C39.5776 11.352 39.7936 10.746 39.7936 9.978ZM56.7789 12.768H52.0629L51.3069 15H48.0849L52.6569 2.364H56.2209L60.7929 15H57.5349L56.7789 12.768ZM55.9869 10.392L54.4209 5.766L52.8729 10.392H55.9869ZM63.7144 3.912C63.1744 3.912 62.7304 3.756 62.3824 3.444C62.0464 3.12 61.8784 2.724 61.8784 2.256C61.8784 1.776 62.0464 1.38 62.3824 1.068C62.7304 0.743999 63.1744 0.581999 63.7144 0.581999C64.2424 0.581999 64.6744 0.743999 65.0104 1.068C65.3584 1.38 65.5324 1.776 65.5324 2.256C65.5324 2.724 65.3584 3.12 65.0104 3.444C64.6744 3.756 64.2424 3.912 63.7144 3.912ZM65.2624 16.296C65.2624 17.532 64.9504 18.42 64.3264 18.96C63.7024 19.512 62.8324 19.788 61.7164 19.788H60.5104V17.178H61.2484C61.5844 17.178 61.8244 17.112 61.9684 16.98C62.1124 16.848 62.1844 16.632 62.1844 16.332V4.956H65.2624V16.296ZM66.8634 9.96C66.8634 8.928 67.0554 8.022 67.4394 7.242C67.8354 6.462 68.3694 5.862 69.0414 5.442C69.7134 5.022 70.4634 4.812 71.2914 4.812C71.9994 4.812 72.6174 4.956 73.1454 5.244C73.6854 5.532 74.0994 5.91 74.3874 6.378V4.956H77.4654V15H74.3874V13.578C74.0874 14.046 73.6674 14.424 73.1274 14.712C72.5994 15 71.9814 15.144 71.2734 15.144C70.4574 15.144 69.7134 14.934 69.0414 14.514C68.3694 14.082 67.8354 13.476 67.4394 12.696C67.0554 11.904 66.8634 10.992 66.8634 9.96ZM74.3874 9.978C74.3874 9.21 74.1714 8.604 73.7394 8.16C73.3194 7.716 72.8034 7.494 72.1914 7.494C71.5794 7.494 71.0574 7.716 70.6254 8.16C70.2054 8.592 69.9954 9.192 69.9954 9.96C69.9954 10.728 70.2054 11.34 70.6254 11.796C71.0574 12.24 71.5794 12.462 72.1914 12.462C72.8034 12.462 73.3194 12.24 73.7394 11.796C74.1714 11.352 74.3874 10.746 74.3874 9.978ZM85.8662 4.848C87.0182 4.848 87.9422 5.232 88.6382 6C89.3342 6.756 89.6822 7.8 89.6822 9.132V15H86.6222V9.546C86.6222 8.874 86.4482 8.352 86.1002 7.98C85.7522 7.608 85.2842 7.422 84.6962 7.422C84.1082 7.422 83.6402 7.608 83.2922 7.98C82.9442 8.352 82.7702 8.874 82.7702 9.546V15H79.6922V1.68H82.7702V6.306C83.0822 5.862 83.5082 5.508 84.0482 5.244C84.5882 4.98 85.1942 4.848 85.8662 4.848Z" fill="#333333"/>
</svg>
